# xmcd
#
# Track frame offsets: 
#        150
#        11878
#        22877
#        40428
#        58753
#        79482
#        93792
#        103792
#        122415
#
# Disc length: 1794 seconds
#
# Revision: 0
# Processed by: cddbd v1.5.2PL0 Copyright (c) Steve Scherf et al.
# Submitted via: ExactAudioCopyFreeDBPlugin 1.0
#
DISCID=6d070009
DTITLE=TEJON STREET CORNER THIEVES - EVERY LAST DROP
DYEAR=2016
DGENRE=Bluegrass
TTITLE0=NO GOOD
TTITLE1=GREASY COAT
TTITLE2=WHISKEY
TTITLE3=AIN'T GOT TROUBLE
TTITLE4=44.
TTITLE5=MINNIE THE MOOCHER
TTITLE6=5 FOOT 2
TTITLE7=NO WATER
TTITLE8=RAG MASH
EXTD=
EXTT0=
EXTT1=
EXTT2=
EXTT3=
EXTT4=
EXTT5=
EXTT6=
EXTT7=
EXTT8=
PLAYORDER=
